Coda-Heavy-IN.ufo
<glyph name="exclam" format="1">
  <advance width="722"/>
  <unicode hex="0021"/>
  <outline>
    <contour>
      <point x="171" y="171" type="curve" smooth="yes"/>
      <point x="171" y="311"/>
      <point x="273" y="381"/>
      <point x="375" y="381" type="curve" smooth="yes"/>
      <point x="477" y="381"/>
      <point x="579" y="311"/>
      <point x="579" y="171" type="curve" smooth="yes"/>
      <point x="579" y="31"/>
      <point x="477" y="-39"/>
      <point x="375" y="-39" type="curve" smooth="yes"/>
      <point x="273" y="-39"/>
      <point x="171" y="31"/>
    </contour>
    <contour>
      <point x="314" y="607" type="curve" smooth="yes"/>
      <point x="250" y="880"/>
      <point x="122" y="1259"/>
      <point x="122" y="1413" type="curve" smooth="yes"/>
      <point x="122" y="1560"/>
      <point x="247" y="1631"/>
      <point x="373" y="1631" type="curve" smooth="yes"/>
      <point x="502" y="1631"/>
      <point x="633" y="1556"/>
      <point x="633" y="1411" type="curve" smooth="yes"/>
      <point x="633" y="1253"/>
      <point x="498" y="874"/>
      <point x="435" y="607" type="curve" smooth="yes"/>
      <point x="424" y="562"/>
      <point x="400" y="539"/>
      <point x="375" y="539" type="curve" smooth="yes"/>
      <point x="350" y="539"/>
      <point x="325" y="561"/>
    </contour>
  </outline>
</glyph>
<glyph name="numbersign" format="1">
  <advance width="1718"/>
  <unicode hex="0023"/>
  <outline>
    <contour>
      <point x="734" y="621" type="line"/>
      <point x="931" y="621" type="line"/>
      <point x="983" y="993" type="line"/>
      <point x="786" y="993" type="line"/>
    </contour>
    <contour>
      <point x="1567" y="430" type="line"/>
      <point x="1402" y="430" type="line"/>
      <point x="1342" y="0" type="line"/>
      <point x="841" y="0" type="line"/>
      <point x="902" y="429" type="line"/>
      <point x="705" y="429" type="line"/>
      <point x="645" y="0" type="line"/>
      <point x="143" y="0" type="line"/>
      <point x="204" y="429" type="line"/>
      <point x="70" y="429" type="line"/>
      <point x="96" y="621" type="line"/>
      <point x="234" y="621" type="line"/>
      <point x="285" y="993" type="line"/>
      <point x="137" y="993" type="line"/>
      <point x="166" y="1200" type="line"/>
      <point x="319" y="1200" type="line"/>
      <point x="373" y="1595" type="line"/>
      <point x="872" y="1595" type="line"/>
      <point x="819" y="1200" type="line"/>
      <point x="1016" y="1200" type="line"/>
      <point x="1071" y="1595" type="line"/>
      <point x="1569" y="1595" type="line"/>
      <point x="1516" y="1200" type="line"/>
      <point x="1664" y="1200" type="line"/>
      <point x="1634" y="994" type="line"/>
      <point x="1483" y="994" type="line"/>
      <point x="1431" y="621" type="line"/>
      <point x="1594" y="621" type="line"/>
    </contour>
  </outline>
</glyph>
<glyph name="dollar" format="1">
  <advance width="1434"/>
  <unicode hex="0024"/>
  <outline>
    <contour>
      <point x="600" y="1031" type="line"/>
      <point x="627" y="1025"/>
      <point x="655" y="1018"/>
      <point x="685" y="1012" type="curve"/>
      <point x="685" y="1283" type="line"/>
      <point x="600" y="1283" type="line"/>
    </contour>
    <contour>
      <point x="847" y="556" type="line"/>
      <point x="764" y="572" type="line"/>
      <point x="764" y="283" type="line"/>
      <point x="847" y="283" type="line"/>
    </contour>
    <contour>
      <point x="685" y="-168" type="line"/>
      <point x="685" y="22" type="line"/>
      <point x="533" y="23"/>
      <point x="406" y="34"/>
      <point x="301" y="71" type="curve" smooth="yes"/>
      <point x="149" y="125"/>
      <point x="89" y="239"/>
      <point x="101" y="482" type="curve"/>
      <point x="600" y="450" type="line"/>
      <point x="600" y="283" type="line"/>
      <point x="685" y="283" type="line"/>
      <point x="685" y="586" type="line"/>
      <point x="392" y="639"/>
      <point x="70" y="711"/>
      <point x="70" y="1080" type="curve" smooth="yes"/>
      <point x="70" y="1462"/>
      <point x="338" y="1538"/>
      <point x="685" y="1544" type="curve"/>
      <point x="685" y="1730" type="line"/>
      <point x="764" y="1730" type="line"/>
      <point x="764" y="1545" type="line"/>
      <point x="914" y="1544"/>
      <point x="1040" y="1533"/>
      <point x="1145" y="1500" type="curve"/>
      <point x="1344" y="1435"/>
      <point x="1357" y="1282"/>
      <point x="1346" y="1092" type="curve"/>
      <point x="847" y="1122" type="line"/>
      <point x="847" y="1283" type="line"/>
      <point x="764" y="1283" type="line"/>
      <point x="764" y="997" type="line"/>
      <point x="1048" y="942"/>
      <point x="1378" y="873"/>
      <point x="1378" y="510" type="curve" smooth="yes"/>
      <point x="1378" y="122"/>
      <point x="1147" y="30"/>
      <point x="764" y="23" type="curve"/>
      <point x="764" y="-168" type="line"/>
    </contour>
  </outline>
</glyph>
<glyph name="ampersand" format="1">
  <advance width="1653"/>
  <unicode hex="0026"/>
  <outline>
    <contour>
      <point x="359" y="861" type="line"/>
      <point x="247" y="873" type="line" smooth="yes"/>
      <point x="180" y="880"/>
      <point x="84" y="958"/>
      <point x="84" y="1198" type="curve" smooth="yes"/>
      <point x="84" y="1594"/>
      <point x="453" y="1632"/>
      <point x="806" y="1632" type="curve" smooth="yes"/>
      <point x="1220" y="1632"/>
      <point x="1442" y="1522"/>
      <point x="1442" y="1238" type="curve" smooth="yes"/>
      <point x="1442" y="1221"/>
      <point x="1441" y="1203"/>
      <point x="1438" y="1184" type="curve"/>
      <point x="893" y="1184" type="line"/>
      <point x="893" y="1392" type="line"/>
      <point x="687" y="1392" type="line"/>
      <point x="687" y="929" type="line"/>
      <point x="896" y="929" type="line"/>
      <point x="896" y="1068" type="line"/>
      <point x="1442" y="1068" type="line"/>
      <point x="1442" y="929" type="line"/>
      <point x="1593" y="929" type="line"/>
      <point x="1593" y="736" type="line"/>
      <point x="1442" y="736" type="line"/>
      <point x="1442" y="513" type="line" smooth="yes"/>
      <point x="1442" y="75"/>
      <point x="1312" y="-40"/>
      <point x="766" y="-40" type="curve" smooth="yes"/>
      <point x="361" y="-40"/>
      <point x="85" y="16"/>
      <point x="85" y="456" type="curve" smooth="yes"/>
      <point x="85" y="569"/>
      <point x="126" y="795"/>
      <point x="247" y="809" type="curve" smooth="yes"/>
      <point x="359" y="822" type="line"/>
    </contour>
    <contour>
      <point x="896" y="224" type="line"/>
      <point x="896" y="736" type="line"/>
      <point x="687" y="736" type="line"/>
      <point x="687" y="224" type="line"/>
    </contour>
  </outline>
</glyph>
<glyph name="slash" format="1">
  <advance width="1056"/>
  <unicode hex="002F"/>
  <outline>
    <contour>
      <point x="136" y="0" type="line"/>
      <point x="488" y="1595" type="line"/>
      <point x="922" y="1595" type="line"/>
      <point x="571" y="0" type="line"/>
    </contour>
  </outline>
</glyph>
<glyph name="zero" format="1">
  <advance width="1469"/>
  <unicode hex="0030"/>
  <outline>
    <contour>
      <point x="739" y="-39" type="curve" smooth="yes"/>
      <point x="422" y="-39"/>
      <point x="89" y="-14"/>
      <point x="89" y="352" type="curve" smooth="yes"/>
      <point x="89" y="1242" type="line" smooth="yes"/>
      <point x="89" y="1610"/>
      <point x="429" y="1633"/>
      <point x="738" y="1633" type="curve" smooth="yes"/>
      <point x="1056" y="1633"/>
      <point x="1383" y="1603"/>
      <point x="1383" y="1242" type="curve" smooth="yes"/>
      <point x="1383" y="352" type="line" smooth="yes"/>
      <point x="1383" y="-25"/>
      <point x="1051" y="-39"/>
    </contour>
    <contour>
      <point x="653" y="233" type="line"/>
      <point x="819" y="233" type="line"/>
      <point x="819" y="1359" type="line"/>
      <point x="653" y="1359" type="line"/>
    </contour>
  </outline>
</glyph>
<glyph name="two" format="1">
  <advance width="1403"/>
  <unicode hex="0032"/>
  <outline>
    <contour>
      <point x="78" y="1064" type="line"/>
      <point x="77" y="1087"/>
      <point x="76" y="1106"/>
      <point x="76" y="1124" type="curve" smooth="yes"/>
      <point x="76" y="1536"/>
      <point x="347" y="1633"/>
      <point x="718" y="1633" type="curve" smooth="yes"/>
      <point x="1139" y="1633"/>
      <point x="1349" y="1500"/>
      <point x="1349" y="1125" type="curve" smooth="yes"/>
      <point x="1349" y="776"/>
      <point x="1076" y="650"/>
      <point x="858" y="545" type="curve" smooth="yes"/>
      <point x="752" y="494"/>
      <point x="630" y="423"/>
      <point x="630" y="301" type="curve"/>
      <point x="1277" y="301" type="line"/>
      <point x="1277" y="1" type="line"/>
      <point x="78" y="1" type="line"/>
      <point x="78" y="201" type="line" smooth="yes"/>
      <point x="78" y="599"/>
      <point x="289" y="758"/>
      <point x="573" y="890" type="curve"/>
      <point x="667" y="936"/>
      <point x="782" y="989"/>
      <point x="782" y="1086" type="curve" smooth="yes"/>
      <point x="782" y="1358" type="line"/>
      <point x="630" y="1358" type="line"/>
      <point x="630" y="1064" type="line"/>
    </contour>
  </outline>
</glyph>
<glyph name="four" format="1">
  <advance width="1459"/>
  <unicode hex="0034"/>
  <outline>
    <contour>
      <point x="1377" y="0" type="line"/>
      <point x="865" y="0" type="line"/>
      <point x="865" y="240" type="line"/>
      <point x="73" y="240" type="line"/>
      <point x="73" y="657" type="line"/>
      <point x="327" y="1595" type="line"/>
      <point x="900" y="1595" type="line"/>
      <point x="649" y="657" type="line"/>
      <point x="649" y="603" type="line"/>
      <point x="865" y="603" type="line"/>
      <point x="865" y="938" type="line"/>
      <point x="1377" y="938" type="line"/>
    </contour>
  </outline>
</glyph>
<glyph name="nine" format="1">
  <advance width="1445"/>
  <unicode hex="0039"/>
  <outline>
    <contour>
      <point x="68" y="1071" type="curve" smooth="yes"/>
      <point x="68" y="1551"/>
      <point x="325" y="1629"/>
      <point x="722" y="1629" type="curve" smooth="yes"/>
      <point x="1130" y="1629"/>
      <point x="1365" y="1508"/>
      <point x="1365" y="1116" type="curve" smooth="yes"/>
      <point x="1365" y="520" type="line" smooth="yes"/>
      <point x="1365" y="84"/>
      <point x="1131" y="-40"/>
      <point x="733" y="-40" type="curve" smooth="yes"/>
      <point x="490" y="-40"/>
      <point x="124" y="0"/>
      <point x="115" y="328" type="curve" smooth="yes"/>
      <point x="114" y="362"/>
      <point x="114" y="394"/>
      <point x="114" y="424" type="curve"/>
      <point x="645" y="424" type="line"/>
      <point x="645" y="225" type="line"/>
      <point x="803" y="225" type="line"/>
      <point x="803" y="508" type="line"/>
      <point x="576" y="508" type="line" smooth="yes"/>
      <point x="178" y="508"/>
      <point x="68" y="688"/>
    </contour>
    <contour>
      <point x="799" y="1358" type="line"/>
      <point x="628" y="1358" type="line"/>
      <point x="628" y="779" type="line"/>
      <point x="799" y="779" type="line"/>
    </contour>
  </outline>
</glyph>
<glyph name="equal" format="1">
  <advance width="1008"/>
  <unicode hex="003D"/>
  <outline>
    <contour>
      <point x="923" y="897" type="line"/>
      <point x="923" y="561" type="line"/>
      <point x="89" y="561" type="line"/>
      <point x="89" y="897" type="line"/>
    </contour>
    <contour>
      <point x="923" y="336" type="line"/>
      <point x="923" y="0" type="line"/>
      <point x="89" y="0" type="line"/>
      <point x="89" y="336" type="line"/>
    </contour>
  </outline>
</glyph>
<glyph name="greater" format="1">
  <advance width="1035"/>
  <unicode hex="003E"/>
  <outline>
    <contour>
      <point x="963" y="489" type="line"/>
      <point x="86" y="0" type="line"/>
      <point x="86" y="504" type="line"/>
      <point x="687" y="797" type="line"/>
      <point x="86" y="1092" type="line"/>
      <point x="86" y="1597" type="line"/>
      <point x="963" y="1098" type="line"/>
    </contour>
  </outline>
</glyph>
<glyph name="at" format="1">
  <advance width="2198"/>
  <unicode hex="0040"/>
  <outline>
    <contour>
      <point x="1081" y="641" type="line"/>
      <point x="1081" y="336" type="line"/>
      <point x="1174" y="336" type="line"/>
      <point x="1174" y="641" type="line"/>
    </contour>
    <contour>
      <point x="1553" y="88" type="curve"/>
      <point x="1388" y="91"/>
      <point x="1263" y="139"/>
      <point x="1202" y="239" type="curve"/>
      <point x="1149" y="173"/>
      <point x="1069" y="113"/>
      <point x="950" y="113" type="curve" smooth="yes"/>
      <point x="733" y="113"/>
      <point x="620" y="199"/>
      <point x="613" y="405" type="curve" smooth="yes"/>
      <point x="612" y="435"/>
      <point x="612" y="464"/>
      <point x="612" y="493" type="curve" smooth="yes"/>
      <point x="612" y="732"/>
      <point x="708" y="836"/>
      <point x="950" y="836" type="curve" smooth="yes"/>
      <point x="1049" y="836"/>
      <point x="1122" y="822"/>
      <point x="1175" y="788" type="curve"/>
      <point x="1175" y="1022" type="line"/>
      <point x="1116" y="1022" type="line"/>
      <point x="1116" y="887" type="line"/>
      <point x="664" y="887" type="line"/>
      <point x="664" y="910"/>
      <point x="663" y="933"/>
      <point x="663" y="956" type="curve" smooth="yes"/>
      <point x="663" y="1204"/>
      <point x="858" y="1248"/>
      <point x="1138" y="1248" type="curve" smooth="yes"/>
      <point x="1496" y="1248"/>
      <point x="1607" y="1146"/>
      <point x="1607" y="837" type="curve" smooth="yes"/>
      <point x="1607" y="330" type="line"/>
      <point x="1777" y="330" type="line"/>
      <point x="1777" y="832" type="line" smooth="yes"/>
      <point x="1777" y="1339"/>
      <point x="1587" y="1424"/>
      <point x="1152" y="1424" type="curve" smooth="yes"/>
      <point x="565" y="1424"/>
      <point x="428" y="1204"/>
      <point x="428" y="692" type="curve" smooth="yes"/>
      <point x="428" y="59"/>
      <point x="589" y="-58"/>
      <point x="1222" y="-58" type="curve" smooth="yes"/>
      <point x="1322" y="-58"/>
      <point x="1443" y="-40"/>
      <point x="1704" y="22" type="curve"/>
      <point x="1762" y="-233" type="line"/>
      <point x="1630" y="-320"/>
      <point x="1446" y="-393"/>
      <point x="1240" y="-393" type="curve" smooth="yes"/>
      <point x="425" y="-393"/>
      <point x="74" y="-177"/>
      <point x="74" y="687" type="curve" smooth="yes"/>
      <point x="74" y="1495"/>
      <point x="440" y="1741"/>
      <point x="1148" y="1741" type="curve" smooth="yes"/>
      <point x="1840" y="1741"/>
      <point x="2133" y="1508"/>
      <point x="2133" y="878" type="curve" smooth="yes"/>
      <point x="2133" y="409"/>
      <point x="2046" y="88"/>
    </contour>
  </outline>
</glyph>
<glyph name="D" format="1">
  <advance width="1554"/>
  <unicode hex="0044"/>
  <outline>
    <contour>
      <point x="1474" y="1204" type="curve" smooth="yes"/>
      <point x="1474" y="393" type="line" smooth="yes"/>
      <point x="1474" y="26"/>
      <point x="1159" y="0"/>
      <point x="848" y="0" type="curve" smooth="yes"/>
      <point x="92" y="0" type="line"/>
      <point x="92" y="1595" type="line"/>
      <point x="848" y="1595" type="line" smooth="yes"/>
      <point x="1164" y="1595"/>
      <point x="1474" y="1559"/>
    </contour>
    <contour>
      <point x="697" y="235" type="line"/>
      <point x="870" y="235" type="line"/>
      <point x="870" y="1358" type="line"/>
      <point x="697" y="1358" type="line"/>
    </contour>
    <contour>
      <point x="777" y="1595" type="move" name="top"/>
    </contour>
    <contour>
      <point x="777" y="798" type="move" name="center"/>
    </contour>
  </outline>
</glyph>
<glyph name="E" format="1">
  <advance width="1096"/>
  <unicode hex="0045"/>
  <outline>
    <contour>
      <point x="1037" y="1595" type="line"/>
      <point x="1037" y="1346" type="line"/>
      <point x="696" y="1346" type="line"/>
      <point x="696" y="961" type="line"/>
      <point x="1014" y="961" type="line"/>
      <point x="1014" y="711" type="line"/>
      <point x="696" y="711" type="line"/>
      <point x="696" y="251" type="line"/>
      <point x="1037" y="251" type="line"/>
      <point x="1037" y="0" type="line"/>
      <point x="92" y="0" type="line"/>
      <point x="92" y="1595" type="line"/>
    </contour>
    <contour>
      <point x="548" y="1595" type="move" name="top"/>
    </contour>
    <contour>
      <point x="548" y="0" type="move" name="bottom"/>
    </contour>
    <contour>
      <point x="986" y="10" type="move" name="ogonek"/>
    </contour>
  </outline>
</glyph>
<glyph name="F" format="1">
  <advance width="1080"/>
  <unicode hex="0046"/>
  <outline>
    <contour>
      <point x="1037" y="1595" type="line"/>
      <point x="1037" y="1346" type="line"/>
      <point x="696" y="1346" type="line"/>
      <point x="696" y="954" type="line"/>
      <point x="1014" y="954" type="line"/>
      <point x="1014" y="705" type="line"/>
      <point x="696" y="705" type="line"/>
      <point x="696" y="0" type="line"/>
      <point x="92" y="0" type="line"/>
      <point x="92" y="1595" type="line"/>
    </contour>
  </outline>
</glyph>
<glyph name="I" format="1">
  <advance width="788"/>
  <unicode hex="0049"/>
  <outline>
    <contour>
      <point x="696" y="1595" type="line"/>
      <point x="696" y="0" type="line"/>
      <point x="92" y="0" type="line"/>
      <point x="92" y="1595" type="line"/>
    </contour>
    <contour>
      <point x="394" y="1595" type="move" name="top"/>
    </contour>
    <contour>
      <point x="709" y="10" type="move" name="ogonek"/>
    </contour>
  </outline>
</glyph>
<glyph name="K" format="1">
  <advance width="1667"/>
  <unicode hex="004B"/>
  <outline>
    <contour>
      <point x="1657" y="0" type="line"/>
      <point x="1284" y="840" type="line"/>
      <point x="1609" y="1595" type="line"/>
      <point x="990" y="1595" type="line"/>
      <point x="695" y="829" type="line"/>
      <point x="697" y="1013" type="line"/>
      <point x="697" y="1595" type="line"/>
      <point x="92" y="1595" type="line"/>
      <point x="92" y="0" type="line"/>
      <point x="697" y="0" type="line"/>
      <point x="697" y="564" type="line"/>
      <point x="756" y="695" type="line"/>
      <point x="1008" y="0" type="line"/>
    </contour>
    <contour>
      <point x="834" y="1595" type="move" name="top"/>
    </contour>
    <contour>
      <point x="834" y="0" type="move" name="bottom"/>
    </contour>
  </outline>
</glyph>
<glyph name="L" format="1">
  <advance width="1072"/>
  <unicode hex="004C"/>
  <outline>
    <contour>
      <point x="92" y="0" type="line"/>
      <point x="92" y="1595" type="line"/>
      <point x="696" y="1595" type="line"/>
      <point x="696" y="241" type="line"/>
      <point x="1037" y="241" type="line"/>
      <point x="1037" y="0" type="line"/>
    </contour>
    <contour>
      <point x="536" y="1595" type="move" name="top"/>
    </contour>
    <contour>
      <point x="536" y="0" type="move" name="bottom"/>
    </contour>
  </outline>
</glyph>
<glyph name="O" format="1">
  <advance width="1542"/>
  <unicode hex="004F"/>
  <outline>
    <contour>
      <point x="768" y="-39" type="curve"/>
      <point x="448" y="-39"/>
      <point x="80" y="-11"/>
      <point x="80" y="370" type="curve" smooth="yes"/>
      <point x="80" y="1226" type="line" smooth="yes"/>
      <point x="80" y="1598"/>
      <point x="467" y="1635"/>
      <point x="768" y="1635" type="curve" smooth="yes"/>
      <point x="1040" y="1635"/>
      <point x="1462" y="1603"/>
      <point x="1462" y="1226" type="curve" smooth="yes"/>
      <point x="1462" y="370" type="line" smooth="yes"/>
      <point x="1462" y="-9"/>
      <point x="1070" y="-38"/>
    </contour>
    <contour>
      <point x="685" y="235" type="line"/>
      <point x="858" y="235" type="line"/>
      <point x="858" y="1362" type="line"/>
      <point x="685" y="1362" type="line"/>
    </contour>
    <contour>
      <point x="771" y="1595" type="move" name="top"/>
    </contour>
  </outline>
</glyph>
<glyph name="Q" format="1">
  <advance width="1542"/>
  <unicode hex="0051"/>
  <outline>
    <contour>
      <point x="685" y="235" type="line"/>
      <point x="858" y="235" type="line"/>
      <point x="858" y="1362" type="line"/>
      <point x="685" y="1362" type="line"/>
    </contour>
    <contour>
      <point x="1030" y="-499" type="line"/>
      <point x="642" y="-36" type="line"/>
      <point x="358" y="-21"/>
      <point x="80" y="39"/>
      <point x="80" y="370" type="curve" smooth="yes"/>
      <point x="80" y="1226" type="line" smooth="yes"/>
      <point x="80" y="1598"/>
      <point x="467" y="1632"/>
      <point x="768" y="1632" type="curve" smooth="yes"/>
      <point x="1040" y="1632"/>
      <point x="1462" y="1603"/>
      <point x="1462" y="1226" type="curve" smooth="yes"/>
      <point x="1462" y="370" type="line" smooth="yes"/>
      <point x="1462" y="118"/>
      <point x="1265" y="30"/>
      <point x="1049" y="-12" type="curve"/>
      <point x="1275" y="-281" type="line"/>
    </contour>
  </outline>
</glyph>
<glyph name="T" format="1">
  <advance width="1319"/>
  <unicode hex="0054"/>
  <outline>
    <contour>
      <point x="1316" y="1595" type="line"/>
      <point x="1316" y="1326" type="line"/>
      <point x="960" y="1326" type="line"/>
      <point x="960" y="0" type="line"/>
      <point x="356" y="0" type="line"/>
      <point x="356" y="1326" type="line"/>
      <point x="3" y="1326" type="line"/>
      <point x="3" y="1595" type="line"/>
    </contour>
    <contour>
      <point x="660" y="1595" type="move" name="top"/>
    </contour>
    <contour>
      <point x="660" y="0" type="move" name="bottom"/>
    </contour>
    <contour>
      <point x="660" y="798" type="move" name="center"/>
    </contour>
  </outline>
</glyph>
<glyph name="U" format="1">
  <advance width="1552"/>
  <unicode hex="0055"/>
  <outline>
    <contour>
      <point x="689" y="234" type="line"/>
      <point x="862" y="234" type="line"/>
      <point x="862" y="1594" type="line"/>
      <point x="1467" y="1594" type="line"/>
      <point x="1467" y="370" type="line" smooth="yes"/>
      <point x="1467" y="-4"/>
      <point x="1076" y="-39"/>
      <point x="774" y="-39" type="curve" smooth="yes"/>
      <point x="497" y="-39"/>
      <point x="85" y="-7"/>
      <point x="85" y="371" type="curve" smooth="yes"/>
      <point x="85" y="1595" type="line"/>
      <point x="689" y="1595" type="line"/>
    </contour>
    <contour>
      <point x="776" y="1595" type="move" name="top"/>
    </contour>
    <contour>
      <point x="1397" y="10" type="move" name="ogonek"/>
    </contour>
  </outline>
</glyph>
<glyph name="V" format="1">
  <advance width="1494"/>
  <unicode hex="0056"/>
  <outline>
    <contour>
      <point x="745" y="412" type="line"/>
      <point x="756" y="412" type="line"/>
      <point x="894" y="1595" type="line"/>
      <point x="1486" y="1595" type="line"/>
      <point x="1168" y="0" type="line"/>
      <point x="326" y="0" type="line"/>
      <point x="8" y="1595" type="line"/>
      <point x="599" y="1595" type="line"/>
    </contour>
  </outline>
</glyph>
<glyph name="W" format="1">
  <advance width="2059"/>
  <unicode hex="0057"/>
  <outline>
    <contour>
      <point x="1396" y="624" type="line"/>
      <point x="1410" y="626" type="line"/>
      <point x="1517" y="1595" type="line"/>
      <point x="2028" y="1595" type="line"/>
      <point x="1809" y="0" type="line"/>
      <point x="1167" y="0" type="line"/>
      <point x="1020" y="927" type="line"/>
      <point x="1009" y="927" type="line"/>
      <point x="862" y="0" type="line"/>
      <point x="240" y="0" type="line"/>
      <point x="31" y="1595" type="line"/>
      <point x="594" y="1595" type="line"/>
      <point x="669" y="624" type="line"/>
      <point x="682" y="624" type="line"/>
      <point x="798" y="1595" type="line"/>
      <point x="1277" y="1595" type="line"/>
    </contour>
    <contour>
      <point x="1030" y="1595" type="move" name="top"/>
    </contour>
  </outline>
</glyph>
<glyph name="X" format="1">
  <advance width="1493"/>
  <unicode hex="0058"/>
  <outline>
    <contour>
      <point x="563" y="0" type="line"/>
      <point x="15" y="0" type="line"/>
      <point x="322" y="802" type="line"/>
      <point x="15" y="1595" type="line"/>
      <point x="567" y="1595" type="line"/>
      <point x="740" y="1081" type="line"/>
      <point x="749" y="1081" type="line"/>
      <point x="927" y="1595" type="line"/>
      <point x="1478" y="1595" type="line"/>
      <point x="1168" y="802" type="line"/>
      <point x="1478" y="0" type="line"/>
      <point x="923" y="0" type="line"/>
      <point x="745" y="514" type="line"/>
      <point x="736" y="514" type="line"/>
    </contour>
  </outline>
</glyph>
<glyph name="Z" format="1">
  <advance width="1108"/>
  <unicode hex="005A"/>
  <outline>
    <contour>
      <point x="1013" y="1595" type="line"/>
      <point x="1006" y="1342" type="line"/>
      <point x="712" y="294" type="line"/>
      <point x="1063" y="294" type="line"/>
      <point x="1053" y="0" type="line"/>
      <point x="101" y="0" type="line"/>
      <point x="101" y="266" type="line"/>
      <point x="421" y="1304" type="line"/>
      <point x="65" y="1304" type="line"/>
      <point x="49" y="1595" type="line"/>
    </contour>
    <contour>
      <point x="554" y="1595" type="move" name="top"/>
    </contour>
  </outline>
</glyph>
<glyph name="bracketleft" format="1">
  <advance width="1111"/>
  <unicode hex="005B"/>
  <outline>
    <contour>
      <point x="100" y="1819" type="line"/>
      <point x="1075" y="1819" type="line"/>
      <point x="1075" y="1578" type="line"/>
      <point x="734" y="1578" type="line"/>
      <point x="734" y="-77" type="line"/>
      <point x="1075" y="-77" type="line"/>
      <point x="1075" y="-319" type="line"/>
      <point x="100" y="-319" type="line"/>
    </contour>
  </outline>
</glyph>
<glyph name="backslash" format="1">
  <advance width="1053"/>
  <unicode hex="005C"/>
  <outline>
    <contour>
      <point x="587" y="1595" type="line"/>
      <point x="939" y="0" type="line"/>
      <point x="464" y="0" type="line"/>
      <point x="113" y="1595" type="line"/>
    </contour>
  </outline>
</glyph>
<glyph name="e" format="1">
  <advance width="1450"/>
  <unicode hex="0065"/>
  <outline>
    <contour>
      <point x="646" y="777" type="line"/>
      <point x="814" y="777" type="line"/>
      <point x="814" y="1105" type="line"/>
      <point x="646" y="1105" type="line"/>
    </contour>
    <contour>
      <point x="1384" y="483" type="line"/>
      <point x="1389" y="445"/>
      <point x="1392" y="412"/>
      <point x="1392" y="380" type="curve" smooth="yes"/>
      <point x="1392" y="74"/>
      <point x="1173" y="-30"/>
      <point x="731" y="-30" type="curve" smooth="yes"/>
      <point x="427" y="-30"/>
      <point x="74" y="-11"/>
      <point x="74" y="353" type="curve" smooth="yes"/>
      <point x="74" y="953" type="line" smooth="yes"/>
      <point x="74" y="1306"/>
      <point x="443" y="1327"/>
      <point x="729" y="1327" type="curve" smooth="yes"/>
      <point x="1022" y="1327"/>
      <point x="1384" y="1309"/>
      <point x="1384" y="954" type="curve" smooth="yes"/>
      <point x="1384" y="604" type="line"/>
      <point x="646" y="604" type="line"/>
      <point x="646" y="199" type="line"/>
      <point x="813" y="199" type="line"/>
      <point x="813" y="483" type="line"/>
    </contour>
    <contour>
      <point x="725" y="1300" type="move" name="top"/>
    </contour>
    <contour>
      <point x="725" y="0" type="move" name="bottom"/>
    </contour>
    <contour>
      <point x="1305" y="10" type="move" name="ogonek"/>
    </contour>
  </outline>
</glyph>
<glyph name="f" format="1">
  <advance width="1118"/>
  <unicode hex="0066"/>
  <outline>
    <contour>
      <point x="225" y="1300" type="line"/>
      <point x="225" y="1624"/>
      <point x="407" y="1731"/>
      <point x="735" y="1731" type="curve" smooth="yes"/>
      <point x="857" y="1731"/>
      <point x="983" y="1719"/>
      <point x="1101" y="1683" type="curve"/>
      <point x="1101" y="1477" type="line"/>
      <point x="796" y="1477" type="line"/>
      <point x="796" y="1300" type="line"/>
      <point x="1110" y="1300" type="line"/>
      <point x="1110" y="1098" type="line"/>
      <point x="796" y="1098" type="line"/>
      <point x="796" y="0" type="line"/>
      <point x="225" y="0" type="line"/>
      <point x="225" y="1098" type="line"/>
      <point x="18" y="1098" type="line"/>
      <point x="18" y="1300" type="line"/>
    </contour>
  </outline>
</glyph>
<glyph name="g" format="1">
  <advance width="1463"/>
  <unicode hex="0067"/>
  <outline>
    <contour>
      <point x="812" y="1104" type="line"/>
      <point x="645" y="1104" type="line"/>
      <point x="645" y="316" type="line"/>
      <point x="812" y="316" type="line"/>
    </contour>
    <contour>
      <point x="497" y="1327" type="curve"/>
      <point x="653" y="1326"/>
      <point x="770" y="1276"/>
      <point x="836" y="1187" type="curve"/>
      <point x="872" y="1299" type="line"/>
      <point x="1383" y="1299" type="line"/>
      <point x="1383" y="236" type="line" smooth="yes"/>
      <point x="1383" y="-184"/>
      <point x="1156" y="-372"/>
      <point x="664" y="-372" type="curve" smooth="yes"/>
      <point x="464" y="-372"/>
      <point x="310" y="-345"/>
      <point x="187" y="-311" type="curve"/>
      <point x="244" y="-20" type="line"/>
      <point x="327" y="-43"/>
      <point x="466" y="-59"/>
      <point x="590" y="-59" type="curve" smooth="yes"/>
      <point x="690" y="-59"/>
      <point x="780" y="-49"/>
      <point x="825" y="-22" type="curve"/>
      <point x="825" y="205" type="line"/>
      <point x="763" y="125"/>
      <point x="633" y="91"/>
      <point x="494" y="91" type="curve" smooth="yes"/>
      <point x="223" y="91"/>
      <point x="74" y="214"/>
      <point x="74" y="482" type="curve" smooth="yes"/>
      <point x="74" y="927" type="line" smooth="yes"/>
      <point x="74" y="1196"/>
      <point x="220" y="1327"/>
    </contour>
    <contour>
      <point x="732" y="1300" type="move" name="top"/>
    </contour>
  </outline>
</glyph>
<glyph name="h" format="1">
  <advance width="1494"/>
  <unicode hex="0068"/>
  <outline>
    <contour>
      <point x="993" y="1327" type="curve" smooth="yes"/>
      <point x="1262" y="1327"/>
      <point x="1410" y="1206"/>
      <point x="1410" y="945" type="curve" smooth="yes"/>
      <point x="1410" y="0" type="line"/>
      <point x="839" y="0" type="line"/>
      <point x="839" y="1105" type="line"/>
      <point x="672" y="1105" type="line"/>
      <point x="672" y="0" type="line"/>
      <point x="101" y="0" type="line"/>
      <point x="101" y="1710" type="line"/>
      <point x="672" y="1710" type="line"/>
      <point x="672" y="1210" type="line"/>
      <point x="729" y="1288"/>
      <point x="860" y="1327"/>
    </contour>
    <contour>
      <point x="747" y="1300" type="move" name="top"/>
    </contour>
    <contour>
      <point x="747" y="650" type="move" name="center"/>
    </contour>
  </outline>
</glyph>
<glyph name="l" format="1">
  <advance width="760"/>
  <unicode hex="006C"/>
  <outline>
    <contour>
      <point x="676" y="0" type="line"/>
      <point x="105" y="0" type="line"/>
      <point x="105" y="1710" type="line"/>
      <point x="676" y="1710" type="line"/>
    </contour>
    <contour>
      <point x="380" y="1300" type="move" name="top"/>
    </contour>
    <contour>
      <point x="380" y="0" type="move" name="bottom"/>
    </contour>
    <contour>
      <point x="740" y="1300" type="move" name="topright"/>
    </contour>
  </outline>
</glyph>
<glyph name="o" format="1">
  <advance width="1457"/>
  <unicode hex="006F"/>
  <outline>
    <contour>
      <point x="732" y="-30" type="curve" smooth="yes"/>
      <point x="414" y="-30"/>
      <point x="74" y="-12"/>
      <point x="74" y="348" type="curve" smooth="yes"/>
      <point x="74" y="953" type="line" smooth="yes"/>
      <point x="74" y="1300"/>
      <point x="436" y="1327"/>
      <point x="733" y="1327" type="curve" smooth="yes"/>
      <point x="1052" y="1327"/>
      <point x="1383" y="1296"/>
      <point x="1383" y="952" type="curve" smooth="yes"/>
      <point x="1383" y="347" type="line" smooth="yes"/>
      <point x="1383" y="-22"/>
      <point x="1037" y="-30"/>
    </contour>
    <contour>
      <point x="645" y="228" type="line"/>
      <point x="811" y="228" type="line"/>
      <point x="811" y="1105" type="line"/>
      <point x="645" y="1105" type="line"/>
    </contour>
    <contour>
      <point x="729" y="1300" type="move" name="top"/>
    </contour>
  </outline>
</glyph>
<glyph name="p" format="1">
  <advance width="1480"/>
  <unicode hex="0070"/>
  <outline>
    <contour>
      <point x="667" y="199" type="line"/>
      <point x="834" y="199" type="line"/>
      <point x="834" y="1105" type="line"/>
      <point x="667" y="1105" type="line"/>
    </contour>
    <contour>
      <point x="986" y="-30" type="curve" smooth="yes"/>
      <point x="847" y="-30"/>
      <point x="728" y="8"/>
      <point x="667" y="87" type="curve"/>
      <point x="667" y="-410" type="line"/>
      <point x="96" y="-410" type="line"/>
      <point x="96" y="1300" type="line"/>
      <point x="586" y="1300" type="line"/>
      <point x="623" y="1188" type="line"/>
      <point x="690" y="1277"/>
      <point x="831" y="1327"/>
      <point x="983" y="1327" type="curve" smooth="yes"/>
      <point x="1259" y="1327"/>
      <point x="1406" y="1198"/>
      <point x="1406" y="926" type="curve" smooth="yes"/>
      <point x="1406" y="365" type="line" smooth="yes"/>
      <point x="1406" y="99"/>
      <point x="1260" y="-30"/>
    </contour>
  </outline>
</glyph>
<glyph name="s" format="1">
  <advance width="1414"/>
  <unicode hex="0073"/>
  <outline>
    <contour>
      <point x="792" y="446" type="line"/>
      <point x="793" y="446" type="line"/>
      <point x="788" y="452"/>
      <point x="773" y="457"/>
      <point x="749" y="460" type="curve" smooth="yes"/>
      <point x="638" y="475"/>
      <point x="511" y="488"/>
      <point x="407" y="517" type="curve" smooth="yes"/>
      <point x="220" y="569"/>
      <point x="55" y="685"/>
      <point x="55" y="900" type="curve" smooth="yes"/>
      <point x="55" y="1266"/>
      <point x="352" y="1327"/>
      <point x="724" y="1327" type="curve" smooth="yes"/>
      <point x="997" y="1327"/>
      <point x="1332" y="1309"/>
      <point x="1332" y="956" type="curve" smooth="yes"/>
      <point x="1332" y="901"/>
      <point x="1332" y="887"/>
      <point x="1331" y="872" type="curve"/>
      <point x="792" y="902" type="line"/>
      <point x="792" y="1063" type="line"/>
      <point x="625" y="1063" type="line"/>
      <point x="625" y="861" type="line"/>
      <point x="631" y="855"/>
      <point x="646" y="850"/>
      <point x="670" y="846" type="curve" smooth="yes"/>
      <point x="781" y="828"/>
      <point x="907" y="815"/>
      <point x="1012" y="786" type="curve" smooth="yes"/>
      <point x="1192" y="736"/>
      <point x="1363" y="629"/>
      <point x="1363" y="420" type="curve" smooth="yes"/>
      <point x="1363" y="6"/>
      <point x="1032" y="-30"/>
      <point x="695" y="-30" type="curve" smooth="yes"/>
      <point x="343" y="-30"/>
      <point x="85" y="8"/>
      <point x="85" y="397" type="curve" smooth="yes"/>
      <point x="85" y="408"/>
      <point x="85" y="420"/>
      <point x="86" y="432" type="curve"/>
      <point x="625" y="400" type="line"/>
      <point x="625" y="233" type="line"/>
      <point x="792" y="233" type="line"/>
    </contour>
    <contour>
      <point x="707" y="1300" type="move" name="top"/>
    </contour>
    <contour>
      <point x="707" y="0" type="move" name="bottom"/>
    </contour>
  </outline>
</glyph>
<glyph name="t" format="1">
  <advance width="944"/>
  <unicode hex="0074"/>
  <outline>
    <contour>
      <point x="906" y="-7" type="line"/>
      <point x="905" y="-7"/>
      <point x="806" y="-25"/>
      <point x="695" y="-25" type="curve" smooth="yes"/>
      <point x="286" y="-25"/>
      <point x="131" y="37"/>
      <point x="131" y="359" type="curve" smooth="yes"/>
      <point x="131" y="1100" type="line"/>
      <point x="-6" y="1100" type="line"/>
      <point x="-6" y="1300" type="line"/>
      <point x="131" y="1300" type="line"/>
      <point x="131" y="1595" type="line"/>
      <point x="702" y="1595" type="line"/>
      <point x="702" y="1300" type="line"/>
      <point x="861" y="1300" type="line"/>
      <point x="861" y="1100" type="line"/>
      <point x="702" y="1100" type="line"/>
      <point x="702" y="328" type="line" smooth="yes"/>
      <point x="702" y="241"/>
      <point x="797" y="223"/>
      <point x="906" y="223" type="curve"/>
    </contour>
    <contour>
      <point x="472" y="650" type="move" name="center"/>
    </contour>
    <contour>
      <point x="472" y="0" type="move" name="bottom"/>
    </contour>
  </outline>
</glyph>
<glyph name="u" format="1">
  <advance width="1490"/>
  <unicode hex="0075"/>
  <outline>
    <contour>
      <point x="508" y="-30" type="curve" smooth="yes"/>
      <point x="239" y="-30"/>
      <point x="84" y="96"/>
      <point x="84" y="360" type="curve" smooth="yes"/>
      <point x="84" y="1300" type="line"/>
      <point x="656" y="1300" type="line"/>
      <point x="656" y="233" type="line"/>
      <point x="822" y="233" type="line"/>
      <point x="822" y="1300" type="line"/>
      <point x="1394" y="1300" type="line"/>
      <point x="1394" y="0" type="line"/>
      <point x="877" y="0" type="line"/>
      <point x="840" y="112" type="line"/>
      <point x="786" y="24"/>
      <point x="646" y="-30"/>
    </contour>
    <contour>
      <point x="745" y="1300" type="move" name="top"/>
    </contour>
    <contour>
      <point x="1341" y="10" type="move" name="ogonek"/>
    </contour>
  </outline>
</glyph>
<glyph name="v" format="1">
  <advance width="1335"/>
  <unicode hex="0076"/>
  <outline>
    <contour>
      <point x="676" y="356" type="line"/>
      <point x="689" y="356" type="line"/>
      <point x="793" y="1300" type="line"/>
      <point x="1344" y="1300" type="line"/>
      <point x="1065" y="0" type="line"/>
      <point x="271" y="0" type="line"/>
      <point x="-9" y="1300" type="line"/>
      <point x="542" y="1300" type="line"/>
    </contour>
  </outline>
</glyph>
<glyph name="braceright" format="1">
  <advance width="1131"/>
  <unicode hex="007D"/>
  <outline>
    <contour>
      <point x="59" y="1646" type="curve"/>
      <point x="59" y="1925" type="line"/>
      <point x="598" y="1925"/>
      <point x="815" y="1752"/>
      <point x="885" y="1228" type="curve" smooth="yes"/>
      <point x="903" y="1090"/>
      <point x="886" y="937"/>
      <point x="1074" y="937" type="curve"/>
      <point x="1074" y="658" type="line"/>
      <point x="884" y="658"/>
      <point x="903" y="495"/>
      <point x="886" y="366" type="curve"/>
      <point x="849" y="-166"/>
      <point x="598" y="-330"/>
      <point x="58" y="-330" type="curve"/>
      <point x="58" y="-51" type="line"/>
      <point x="623" y="-51"/>
      <point x="269" y="612"/>
      <point x="550" y="796" type="curve"/>
      <point x="269" y="1008"/>
      <point x="623" y="1646"/>
    </contour>
  </outline>
</glyph>
<glyph name="asciitilde" format="1">
  <advance width="1424"/>
  <unicode hex="007E"/>
  <outline>
    <contour>
      <point x="1057" y="642" type="line"/>
      <point x="1057" y="728"/>
      <point x="1028" y="806"/>
      <point x="950" y="806" type="curve" smooth="yes"/>
      <point x="784" y="806"/>
      <point x="715" y="616"/>
      <point x="480" y="616" type="curve" smooth="yes"/>
      <point x="135" y="616"/>
      <point x="73" y="885"/>
      <point x="73" y="1176" type="curve"/>
      <point x="369" y="1176" type="line"/>
      <point x="369" y="1089"/>
      <point x="394" y="1008"/>
      <point x="481" y="1008" type="curve" smooth="yes"/>
      <point x="670" y="1008"/>
      <point x="754" y="1201"/>
      <point x="1008" y="1201" type="curve" smooth="yes"/>
      <point x="1312" y="1201"/>
      <point x="1354" y="992"/>
      <point x="1354" y="642" type="curve"/>
    </contour>
  </outline>
</glyph>
<glyph name="currency" format="1">
  <advance width="1390"/>
  <unicode hex="00A4"/>
  <outline>
    <contour>
      <point x="637" y="570" type="line"/>
      <point x="749" y="570" type="line"/>
      <point x="749" y="1070" type="line"/>
      <point x="637" y="1070" type="line"/>
    </contour>
    <contour>
      <point x="698" y="299" type="curve" smooth="yes"/>
      <point x="560" y="300"/>
      <point x="449" y="315"/>
      <point x="354" y="349" type="curve"/>
      <point x="206" y="189" type="line"/>
      <point x="126" y="273" type="line"/>
      <point x="244" y="401" type="line"/>
      <point x="117" y="483"/>
      <point x="68" y="602"/>
      <point x="68" y="804" type="curve" smooth="yes"/>
      <point x="68" y="1004"/>
      <point x="101" y="1142"/>
      <point x="219" y="1229" type="curve"/>
      <point x="127" y="1330" type="line"/>
      <point x="207" y="1414" type="line"/>
      <point x="325" y="1286" type="line"/>
      <point x="427" y="1326"/>
      <point x="546" y="1343"/>
      <point x="697" y="1343" type="curve" smooth="yes"/>
      <point x="846" y="1343"/>
      <point x="963" y="1326"/>
      <point x="1065" y="1287" type="curve"/>
      <point x="1181" y="1414" type="line"/>
      <point x="1262" y="1330" type="line"/>
      <point x="1171" y="1231" type="line"/>
      <point x="1293" y="1143"/>
      <point x="1325" y="1016"/>
      <point x="1325" y="804" type="curve" smooth="yes"/>
      <point x="1325" y="605"/>
      <point x="1271" y="479"/>
      <point x="1145" y="398" type="curve"/>
      <point x="1263" y="272" type="line"/>
      <point x="1182" y="188" type="line"/>
      <point x="1036" y="346" type="line"/>
      <point x="939" y="314"/>
      <point x="833" y="299"/>
    </contour>
  </outline>
</glyph>
<glyph name="yen" format="1">
  <advance width="1571"/>
  <unicode hex="00A5"/>
  <outline>
    <contour>
      <point x="746" y="1021" type="line"/>
      <point x="763" y="815" type="line"/>
      <point x="792" y="815" type="line"/>
      <point x="809" y="1021" type="line"/>
      <point x="968" y="1595" type="line"/>
      <point x="1524" y="1595" type="line"/>
      <point x="1190" y="728" type="line"/>
      <point x="1425" y="728" type="line"/>
      <point x="1425" y="585" type="line"/>
      <point x="1134" y="585" type="line"/>
      <point x="1082" y="449" type="line"/>
      <point x="1082" y="442" type="line"/>
      <point x="1425" y="442" type="line"/>
      <point x="1425" y="299" type="line"/>
      <point x="1082" y="299" type="line"/>
      <point x="1082" y="0" type="line"/>
      <point x="477" y="0" type="line"/>
      <point x="477" y="299" type="line"/>
      <point x="127" y="299" type="line"/>
      <point x="127" y="442" type="line"/>
      <point x="477" y="442" type="line"/>
      <point x="477" y="459" type="line"/>
      <point x="428" y="585" type="line"/>
      <point x="127" y="585" type="line"/>
      <point x="127" y="728" type="line"/>
      <point x="372" y="728" type="line"/>
      <point x="32" y="1595" type="line"/>
      <point x="592" y="1595" type="line"/>
    </contour>
  </outline>
</glyph>
<glyph name="brokenbar" format="1">
  <advance width="831"/>
  <unicode hex="00A6"/>
  <outline>
    <contour>
      <point x="702" y="1708" type="line"/>
      <point x="702" y="797" type="line"/>
      <point x="131" y="797" type="line"/>
      <point x="131" y="1708" type="line"/>
    </contour>
    <contour>
      <point x="702" y="656" type="line"/>
      <point x="702" y="-255" type="line"/>
      <point x="131" y="-255" type="line"/>
      <point x="131" y="656" type="line"/>
    </contour>
  </outline>
</glyph>
<glyph name="dieresis" format="1">
  <advance width="1296"/>
  <unicode hex="00A8"/>
  <outline>
    <contour>
      <point x="1217" y="418" type="line"/>
      <point x="1217" y="82" type="line"/>
      <point x="766" y="82" type="line"/>
      <point x="766" y="418" type="line"/>
    </contour>
    <contour>
      <point x="533" y="418" type="line"/>
      <point x="533" y="82" type="line"/>
      <point x="83" y="82" type="line"/>
      <point x="83" y="418" type="line"/>
    </contour>
    <contour>
      <point x="650" y="1300" type="move" name="_top"/>
    </contour>
  </outline>
</glyph>
<glyph name="logicalnot" format="1">
  <advance width="1269"/>
  <unicode hex="00AC"/>
  <outline>
    <contour>
      <point x="1179" y="300" type="line"/>
      <point x="950" y="300" type="line"/>
      <point x="950" y="791" type="line"/>
      <point x="83" y="791" type="line"/>
      <point x="83" y="1105" type="line"/>
      <point x="1179" y="1105" type="line"/>
    </contour>
  </outline>
</glyph>
<glyph name="uni00AD" format="1">
  <advance width="1005"/>
  <unicode hex="00AD"/>
  <outline>
    <contour>
      <point x="920" y="897" type="line"/>
      <point x="920" y="561" type="line"/>
      <point x="87" y="561" type="line"/>
      <point x="87" y="897" type="line"/>
    </contour>
  </outline>
</glyph>
<glyph name="registered" format="1">
  <advance width="1861"/>
  <unicode hex="00AE"/>
  <outline>
    <contour>
      <point x="895" y="915" type="line"/>
      <point x="978" y="915" type="line"/>
      <point x="978" y="1274" type="line"/>
      <point x="895" y="1274" type="line"/>
    </contour>
    <contour>
      <point x="1116" y="835" type="line"/>
      <point x="1227" y="828" type="line" smooth="yes"/>
      <point x="1311" y="822"/>
      <point x="1357" y="751"/>
      <point x="1357" y="643" type="curve" smooth="yes"/>
      <point x="1357" y="279" type="line"/>
      <point x="978" y="279" type="line"/>
      <point x="978" y="756" type="line"/>
      <point x="895" y="756" type="line"/>
      <point x="895" y="279" type="line"/>
      <point x="506" y="279" type="line"/>
      <point x="506" y="1434" type="line"/>
      <point x="1016" y="1434" type="line" smooth="yes"/>
      <point x="1171" y="1434"/>
      <point x="1361" y="1423"/>
      <point x="1361" y="1164" type="curve" smooth="yes"/>
      <point x="1361" y="1071" type="line" smooth="yes"/>
      <point x="1361" y="945"/>
      <point x="1308" y="871"/>
      <point x="1226" y="864" type="curve" smooth="yes"/>
      <point x="1116" y="854" type="line"/>
    </contour>
    <contour>
      <point x="323" y="1114" type="curve" smooth="yes"/>
      <point x="323" y="535" type="line" smooth="yes"/>
      <point x="323" y="169"/>
      <point x="523" y="68"/>
      <point x="932" y="68" type="curve" smooth="yes"/>
      <point x="1300" y="68"/>
      <point x="1541" y="156"/>
      <point x="1541" y="482" type="curve" smooth="yes"/>
      <point x="1541" y="1165" type="line" smooth="yes"/>
      <point x="1541" y="1500"/>
      <point x="1275" y="1573"/>
      <point x="932" y="1573" type="curve" smooth="yes"/>
      <point x="520" y="1573"/>
      <point x="323" y="1471"/>
    </contour>
    <contour>
      <point x="932" y="-101" type="curve" smooth="yes"/>
      <point x="421" y="-101"/>
      <point x="84" y="42"/>
      <point x="84" y="539" type="curve" smooth="yes"/>
      <point x="84" y="1116" type="line" smooth="yes"/>
      <point x="84" y="1638"/>
      <point x="490" y="1749"/>
      <point x="932" y="1749" type="curve" smooth="yes"/>
      <point x="1441" y="1749"/>
      <point x="1780" y="1610"/>
      <point x="1780" y="1116" type="curve" smooth="yes"/>
      <point x="1780" y="539" type="line" smooth="yes"/>
      <point x="1780" y="14"/>
      <point x="1377" y="-101"/>
    </contour>
  </outline>
</glyph>
<glyph name="macron" format="1">
  <advance width="999"/>
  <unicode hex="00AF"/>
  <outline>
    <contour>
      <point x="920" y="897" type="line"/>
      <point x="920" y="666" type="line"/>
      <point x="87" y="666" type="line"/>
      <point x="87" y="897" type="line"/>
    </contour>
    <contour>
      <point x="503.5" y="1300" type="move" name="_top"/>
    </contour>
  </outline>
</glyph>
<glyph name="plusminus" format="1">
  <advance width="1304"/>
  <unicode hex="00B1"/>
  <outline>
    <contour>
      <point x="1064" y="300" type="line"/>
      <point x="1064" y="-1" type="line"/>
      <point x="230" y="-1" type="line"/>
      <point x="230" y="300" type="line"/>
    </contour>
    <contour>
      <point x="457" y="1214" type="line"/>
      <point x="457" y="1595" type="line"/>
      <point x="849" y="1595" type="line"/>
      <point x="849" y="1214" type="line"/>
      <point x="1213" y="1214" type="line"/>
      <point x="1213" y="881" type="line"/>
      <point x="849" y="881" type="line"/>
      <point x="849" y="503" type="line"/>
      <point x="457" y="503" type="line"/>
      <point x="457" y="881" type="line"/>
      <point x="92" y="881" type="line"/>
      <point x="92" y="1214" type="line"/>
    </contour>
  </outline>
</glyph>
<glyph name="paragraph" format="1">
  <advance width="1318"/>
  <unicode hex="00B6"/>
  <outline>
    <contour>
      <point x="591" y="659" type="line"/>
      <point x="258" y="659"/>
      <point x="56" y="782"/>
      <point x="56" y="1107" type="curve" smooth="yes"/>
      <point x="56" y="1516"/>
      <point x="342" y="1595"/>
      <point x="689" y="1595" type="curve" smooth="yes"/>
      <point x="1223" y="1595" type="line"/>
      <point x="1223" y="0" type="line"/>
      <point x="962" y="0" type="line"/>
      <point x="962" y="658" type="line"/>
      <point x="853" y="658" type="line"/>
      <point x="853" y="0" type="line"/>
      <point x="591" y="0" type="line"/>
    </contour>
  </outline>
</glyph>
<glyph name="cedilla" format="1">
  <advance width="948"/>
  <unicode hex="00B8"/>
  <outline>
    <contour>
      <point x="384" y="0" type="line"/>
      <point x="561" y="0" type="line"/>
      <point x="561" y="-70" type="line"/>
      <point x="701" y="-70"/>
      <point x="791" y="-101"/>
      <point x="791" y="-228" type="curve" smooth="yes"/>
      <point x="791" y="-323" type="line" smooth="yes"/>
      <point x="791" y="-460"/>
      <point x="678" y="-481"/>
      <point x="538" y="-481" type="curve" smooth="yes"/>
      <point x="389" y="-481"/>
      <point x="284" y="-457"/>
      <point x="284" y="-323" type="curve" smooth="yes"/>
      <point x="284" y="-267" type="line"/>
      <point x="511" y="-239" type="line"/>
      <point x="511" y="-371" type="line"/>
      <point x="574" y="-371" type="line"/>
      <point x="574" y="-180" type="line"/>
      <point x="384" y="-180" type="line"/>
    </contour>
    <contour>
      <point x="537.5" y="0" type="move" name="_bottom"/>
    </contour>
  </outline>
</glyph>
<glyph name="uni00B9" format="1">
  <advance width="731"/>
  <unicode hex="00B9"/>
  <outline>
    <contour>
      <point x="115" y="1115" type="line"/>
      <point x="205" y="1115"/>
      <point x="285" y="1135"/>
      <point x="342" y="1170" type="curve"/>
      <point x="654" y="1170" type="line"/>
      <point x="654" y="130" type="line"/>
      <point x="259" y="130" type="line"/>
      <point x="259" y="971" type="line"/>
      <point x="115" y="971" type="line"/>
    </contour>
  </outline>
</glyph>
<glyph name="ordmasculine" format="1">
  <advance width="1334"/>
  <unicode hex="00BA"/>
  <outline>
    <contour>
      <point x="675" y="317" type="line"/>
      <point x="808" y="317" type="line"/>
      <point x="808" y="1014" type="line"/>
      <point x="675" y="1014" type="line"/>
    </contour>
    <contour>
      <point x="744" y="99" type="curve"/>
      <point x="490" y="99"/>
      <point x="218" y="115"/>
      <point x="218" y="413" type="curve" smooth="yes"/>
      <point x="218" y="893" type="line" smooth="yes"/>
      <point x="218" y="1185"/>
      <point x="507" y="1204"/>
      <point x="745" y="1204" type="curve" smooth="yes"/>
      <point x="996" y="1204"/>
      <point x="1265" y="1180"/>
      <point x="1265" y="892" type="curve" smooth="yes"/>
      <point x="1265" y="412" type="line" smooth="yes"/>
      <point x="1265" y="110"/>
      <point x="990" y="102"/>
    </contour>
  </outline>
</glyph>
<glyph name="AE" format="1">
  <advance width="2011"/>
  <unicode hex="00C6"/>
  <outline>
    <contour>
      <point x="847" y="578" type="line"/>
      <point x="987" y="578" type="line"/>
      <point x="987" y="1001" type="line"/>
    </contour>
    <contour>
      <point x="1946" y="1595" type="line"/>
      <point x="1946" y="1354" type="line"/>
      <point x="1605" y="1354" type="line"/>
      <point x="1605" y="961" type="line"/>
      <point x="1923" y="961" type="line"/>
      <point x="1923" y="711" type="line"/>
      <point x="1605" y="711" type="line"/>
      <point x="1605" y="244" type="line"/>
      <point x="1946" y="244" type="line"/>
      <point x="1946" y="0" type="line"/>
      <point x="987" y="0" type="line"/>
      <point x="987" y="348" type="line"/>
      <point x="774" y="348" type="line"/>
      <point x="663" y="0" type="line"/>
      <point x="38" y="0" type="line"/>
      <point x="673" y="1595" type="line"/>
    </contour>
    <contour>
      <point x="1006" y="1595" type="move" name="top"/>
    </contour>
  </outline>
</glyph>
<glyph name="Oslash" format="1">
  <advance width="1542"/>
  <unicode hex="00D8"/>
  <outline>
    <contour>
      <point x="1292" y="1546" type="line"/>
      <point x="1403" y="1487"/>
      <point x="1472" y="1388"/>
      <point x="1472" y="1226" type="curve" smooth="yes"/>
      <point x="1472" y="370" type="line" smooth="yes"/>
      <point x="1472" y="16"/>
      <point x="1141" y="-39"/>
      <point x="778" y="-39" type="curve"/>
      <point x="779" y="-41" type="line"/>
      <point x="621" y="-41"/>
      <point x="470" y="-31"/>
      <point x="350" y="10" type="curve"/>
      <point x="242" y="-166" type="line"/>
      <point x="114" y="-70" type="line"/>
      <point x="210" y="85" type="line"/>
      <point x="135" y="147"/>
      <point x="90" y="238"/>
      <point x="90" y="370" type="curve" smooth="yes"/>
      <point x="90" y="1226" type="line" smooth="yes"/>
      <point x="90" y="1578"/>
      <point x="417" y="1630"/>
      <point x="778" y="1630" type="curve" smooth="yes"/>
      <point x="908" y="1630"/>
      <point x="1033" y="1623"/>
      <point x="1141" y="1599" type="curve"/>
      <point x="1275" y="1817" type="line"/>
      <point x="1396" y="1716" type="line"/>
    </contour>
    <contour>
      <point x="695" y="235" type="line"/>
      <point x="868" y="235" type="line"/>
      <point x="868" y="1362" type="line"/>
      <point x="695" y="1362" type="line"/>
    </contour>
    <contour>
      <point x="771" y="1595" type="move" name="top"/>
    </contour>
  </outline>
</glyph>
<glyph name="Thorn" format="1">
  <advance width="1534"/>
  <unicode hex="00DE"/>
  <outline>
    <contour>
      <point x="706" y="482" type="line"/>
      <point x="869" y="482" type="line"/>
      <point x="869" y="1182" type="line"/>
      <point x="706" y="1182" type="line"/>
    </contour>
    <contour>
      <point x="104" y="1599" type="line"/>
      <point x="706" y="1599" type="line"/>
      <point x="706" y="1413" type="line"/>
      <point x="843" y="1413" type="line" smooth="yes"/>
      <point x="1023" y="1413"/>
      <point x="1169" y="1397"/>
      <point x="1284" y="1347" type="curve" smooth="yes"/>
      <point x="1417" y="1289"/>
      <point x="1469" y="1205"/>
      <point x="1469" y="1022" type="curve" smooth="yes"/>
      <point x="1469" y="641" type="line" smooth="yes"/>
      <point x="1469" y="576"/>
      <point x="1467" y="519"/>
      <point x="1447" y="469" type="curve" smooth="yes"/>
      <point x="1371" y="284"/>
      <point x="1116" y="250"/>
      <point x="843" y="250" type="curve" smooth="yes"/>
      <point x="706" y="250" type="line"/>
      <point x="706" y="0" type="line"/>
      <point x="104" y="0" type="line"/>
    </contour>
  </outline>
</glyph>
<glyph name="germandbls" format="1">
  <advance width="1389"/>
  <unicode hex="00DF"/>
  <outline>
    <contour>
      <point x="1327" y="258" type="line" smooth="yes"/>
      <point x="1327" y="-16"/>
      <point x="1056" y="-37"/>
      <point x="776" y="-37" type="curve" smooth="yes"/>
      <point x="692" y="-37" type="line"/>
      <point x="692" y="194" type="line"/>
      <point x="831" y="194" type="line"/>
      <point x="831" y="750" type="line"/>
      <point x="719" y="750" type="line"/>
      <point x="719" y="981" type="line"/>
      <point x="831" y="981" type="line"/>
      <point x="831" y="1358" type="line"/>
      <point x="595" y="1358" type="line"/>
      <point x="595" y="-205" type="line"/>
      <point x="99" y="-205" type="line"/>
      <point x="99" y="1217" type="line" smooth="yes"/>
      <point x="99" y="1546"/>
      <point x="379" y="1595"/>
      <point x="715" y="1595" type="curve" smooth="yes"/>
      <point x="975" y="1595"/>
      <point x="1172" y="1538"/>
      <point x="1236" y="1350" type="curve" smooth="yes"/>
      <point x="1254" y="1297"/>
      <point x="1258" y="1235"/>
      <point x="1258" y="1170" type="curve" smooth="yes"/>
      <point x="1258" y="985"/>
      <point x="1154" y="883"/>
      <point x="986" y="870" type="curve"/>
      <point x="1177" y="859"/>
      <point x="1327" y="759"/>
      <point x="1327" y="553" type="curve" smooth="yes"/>
    </contour>
  </outline>
</glyph>
<glyph name="divide" format="1">
  <advance width="1286"/>
  <unicode hex="00F7"/>
  <outline>
    <contour>
      <point x="1229" y="908" type="line"/>
      <point x="1229" y="670" type="line"/>
      <point x="67" y="670" type="line"/>
      <point x="67" y="908" type="line"/>
    </contour>
    <contour>
      <point x="901" y="1000" type="line"/>
      <point x="394" y="1000" type="line"/>
      <point x="394" y="1497" type="line"/>
      <point x="901" y="1497" type="line"/>
    </contour>
    <contour>
      <point x="901" y="92" type="line"/>
      <point x="394" y="92" type="line"/>
      <point x="394" y="559" type="line"/>
      <point x="901" y="559" type="line"/>
    </contour>
  </outline>
</glyph>
<glyph name="oslash" format="1">
  <advance width="1465"/>
  <unicode hex="00F8"/>
  <outline>
    <contour>
      <point x="657" y="636" type="line"/>
      <point x="823" y="806" type="line"/>
      <point x="823" y="1106" type="line"/>
      <point x="657" y="1106" type="line"/>
    </contour>
    <contour>
      <point x="657" y="234" type="line"/>
      <point x="823" y="234" type="line"/>
      <point x="823" y="689" type="line"/>
      <point x="657" y="519" type="line"/>
    </contour>
    <contour>
      <point x="86" y="952" type="line" smooth="yes"/>
      <point x="86" y="1298"/>
      <point x="390" y="1343"/>
      <point x="745" y="1343" type="curve"/>
      <point x="744" y="1344" type="line"/>
      <point x="957" y="1344"/>
      <point x="1128" y="1324"/>
      <point x="1255" y="1249" type="curve"/>
      <point x="1348" y="1344" type="line"/>
      <point x="1406" y="1286" type="line"/>
      <point x="1320" y="1198" type="line"/>
      <point x="1376" y="1141"/>
      <point x="1395" y="1063"/>
      <point x="1395" y="952" type="curve" smooth="yes"/>
      <point x="1395" y="352" type="line" smooth="yes"/>
      <point x="1395" y="172"/>
      <point x="1330" y="82"/>
      <point x="1197" y="27" type="curve" smooth="yes"/>
      <point x="1078" y="-22"/>
      <point x="928" y="-39"/>
      <point x="744" y="-39" type="curve" smooth="yes"/>
      <point x="522" y="-39"/>
      <point x="343" y="-18"/>
      <point x="215" y="65" type="curve"/>
      <point x="114" y="-39" type="line"/>
      <point x="56" y="19" type="line"/>
      <point x="153" y="118" type="line"/>
      <point x="103" y="175"/>
      <point x="86" y="249"/>
      <point x="86" y="352" type="curve" smooth="yes"/>
    </contour>
    <contour>
      <point x="733" y="1300" type="move" name="top"/>
    </contour>
  </outline>
</glyph>
<glyph name="Dcroat" format="1">
  <advance width="1449"/>
  <unicode hex="0110"/>
  <outline>
    <contour>
      <point x="645" y="237" type="line"/>
      <point x="881" y="237" type="line"/>
      <point x="881" y="1358" type="line"/>
      <point x="645" y="1358" type="line"/>
      <point x="645" y="868" type="line"/>
      <point x="773" y="868" type="line"/>
      <point x="773" y="726" type="line"/>
      <point x="645" y="726" type="line"/>
    </contour>
    <contour>
      <point x="1378" y="393" type="line"/>
      <point x="1376" y="392" type="line"/>
      <point x="1376" y="218"/>
      <point x="1331" y="125"/>
      <point x="1210" y="66" type="curve" smooth="yes"/>
      <point x="1110" y="17"/>
      <point x="980" y="0"/>
      <point x="817" y="0" type="curve" smooth="yes"/>
      <point x="146" y="0" type="line"/>
      <point x="146" y="726" type="line"/>
      <point x="52" y="726" type="line"/>
      <point x="52" y="868" type="line"/>
      <point x="146" y="868" type="line"/>
      <point x="146" y="1595" type="line"/>
      <point x="817" y="1595" type="line" smooth="yes"/>
      <point x="1100" y="1595"/>
      <point x="1360" y="1546"/>
      <point x="1375" y="1289" type="curve" smooth="yes"/>
      <point x="1377" y="1259"/>
      <point x="1378" y="1231"/>
      <point x="1378" y="1204" type="curve" smooth="yes"/>
    </contour>
  </outline>
</glyph>
<glyph name="dcroat" format="1">
  <advance width="1478"/>
  <unicode hex="0111"/>
  <outline>
    <contour>
      <point x="500" y="1327" type="curve" smooth="yes"/>
      <point x="650" y="1327"/>
      <point x="756" y="1292"/>
      <point x="823" y="1215" type="curve"/>
      <point x="823" y="1477" type="line"/>
      <point x="645" y="1477" type="line"/>
      <point x="645" y="1638" type="line"/>
      <point x="823" y="1638" type="line"/>
      <point x="823" y="1710" type="line"/>
      <point x="1394" y="1710" type="line"/>
      <point x="1394" y="1638" type="line"/>
      <point x="1518" y="1638" type="line"/>
      <point x="1518" y="1477" type="line"/>
      <point x="1394" y="1477" type="line"/>
      <point x="1394" y="0" type="line"/>
      <point x="874" y="0" type="line"/>
      <point x="837" y="114" type="line"/>
      <point x="775" y="26"/>
      <point x="648" y="-27"/>
      <point x="502" y="-27" type="curve" smooth="yes"/>
      <point x="224" y="-27"/>
      <point x="85" y="106"/>
      <point x="85" y="377" type="curve" smooth="yes"/>
      <point x="85" y="940" type="line" smooth="yes"/>
      <point x="85" y="1203"/>
      <point x="228" y="1327"/>
    </contour>
    <contour>
      <point x="822" y="1105" type="line"/>
      <point x="655" y="1105" type="line"/>
      <point x="655" y="199" type="line"/>
      <point x="822" y="199" type="line"/>
    </contour>
  </outline>
</glyph>
<glyph name="hbar" format="1">
  <advance width="1511"/>
  <unicode hex="0127"/>
  <outline>
    <contour>
      <point x="1023" y="1343" type="curve" smooth="yes"/>
      <point x="1298" y="1343"/>
      <point x="1439" y="1213"/>
      <point x="1439" y="945" type="curve" smooth="yes"/>
      <point x="1439" y="0" type="line"/>
      <point x="868" y="0" type="line"/>
      <point x="868" y="1065" type="line"/>
      <point x="702" y="1065" type="line"/>
      <point x="702" y="0" type="line"/>
      <point x="130" y="0" type="line"/>
      <point x="130" y="1450" type="line"/>
      <point x="1" y="1450" type="line"/>
      <point x="1" y="1619" type="line"/>
      <point x="130" y="1619" type="line"/>
      <point x="130" y="1710" type="line"/>
      <point x="702" y="1710" type="line"/>
      <point x="702" y="1619" type="line"/>
      <point x="1146" y="1619" type="line"/>
      <point x="1146" y="1450" type="line"/>
      <point x="702" y="1450" type="line"/>
      <point x="702" y="1210" type="line"/>
      <point x="756" y="1297"/>
      <point x="884" y="1343"/>
    </contour>
  </outline>
</glyph>
<glyph name="ij" format="1">
  <advance width="1646"/>
  <unicode hex="0133"/>
  <outline>
    <contour>
      <point x="1561" y="1709" type="line"/>
      <point x="1561" y="1425" type="line"/>
      <point x="989" y="1425" type="line"/>
      <point x="989" y="1709" type="line"/>
    </contour>
    <contour>
      <point x="1561" y="94" type="line" smooth="yes"/>
      <point x="1561" y="-199"/>
      <point x="1397" y="-326"/>
      <point x="1100" y="-326" type="curve" smooth="yes"/>
      <point x="991" y="-326"/>
      <point x="911" y="-321"/>
      <point x="830" y="-305" type="curve"/>
      <point x="800" y="-66" type="line"/>
      <point x="989" y="-66" type="line"/>
      <point x="989" y="1300" type="line"/>
      <point x="1561" y="1300" type="line"/>
    </contour>
    <contour>
      <point x="678" y="1709" type="line"/>
      <point x="678" y="1425" type="line"/>
      <point x="107" y="1425" type="line"/>
      <point x="107" y="1709" type="line"/>
    </contour>
    <contour>
      <point x="678" y="0" type="line"/>
      <point x="107" y="0" type="line"/>
      <point x="107" y="1300" type="line"/>
      <point x="678" y="1300" type="line"/>
    </contour>
  </outline>
</glyph>
<glyph name="Lslash" format="1">
  <advance width="1534"/>
  <unicode hex="0141"/>
  <outline>
    <contour>
      <point x="377" y="911" type="line"/>
      <point x="377" y="1595" type="line"/>
      <point x="981" y="1595" type="line"/>
      <point x="981" y="1231" type="line"/>
      <point x="1320" y="1410" type="line"/>
      <point x="1320" y="1072" type="line"/>
      <point x="981" y="892" type="line"/>
      <point x="981" y="241" type="line"/>
      <point x="1322" y="241" type="line"/>
      <point x="1322" y="0" type="line"/>
      <point x="377" y="0" type="line"/>
      <point x="377" y="572" type="line"/>
      <point x="72" y="410" type="line"/>
      <point x="72" y="750" type="line"/>
    </contour>
  </outline>
</glyph>
<glyph name="lslash" format="1">
  <advance width="1145"/>
  <unicode hex="0142"/>
  <outline>
    <contour>
      <point x="852" y="0" type="line"/>
      <point x="281" y="0" type="line"/>
      <point x="281" y="641" type="line"/>
      <point x="64" y="539" type="line"/>
      <point x="64" y="788" type="line"/>
      <point x="281" y="890" type="line"/>
      <point x="281" y="1710" type="line"/>
      <point x="852" y="1710" type="line"/>
      <point x="852" y="1158" type="line"/>
      <point x="1094" y="1271" type="line"/>
      <point x="1094" y="1023" type="line"/>
      <point x="852" y="909" type="line"/>
    </contour>
  </outline>
</glyph>
<glyph name="OE" format="1">
  <advance width="1832"/>
  <unicode hex="0152"/>
  <outline>
    <contour>
      <point x="678" y="232" type="line"/>
      <point x="792" y="232" type="line"/>
      <point x="792" y="1363" type="line"/>
      <point x="678" y="1363" type="line"/>
    </contour>
    <contour>
      <point x="722" y="0" type="line"/>
      <point x="722" y="-1" type="line"/>
      <point x="541" y="-1"/>
      <point x="396" y="13"/>
      <point x="279" y="60" type="curve" smooth="yes"/>
      <point x="145" y="114"/>
      <point x="92" y="191"/>
      <point x="92" y="371" type="curve" smooth="yes"/>
      <point x="92" y="1227" type="line" smooth="yes"/>
      <point x="92" y="1401"/>
      <point x="149" y="1483"/>
      <point x="279" y="1534" type="curve" smooth="yes"/>
      <point x="396" y="1580"/>
      <point x="543" y="1595"/>
      <point x="722" y="1595" type="curve" smooth="yes"/>
      <point x="1768" y="1595" type="line"/>
      <point x="1768" y="1354" type="line"/>
      <point x="1424" y="1354" type="line"/>
      <point x="1424" y="961" type="line"/>
      <point x="1744" y="961" type="line"/>
      <point x="1744" y="711" type="line"/>
      <point x="1424" y="711" type="line"/>
      <point x="1424" y="244" type="line"/>
      <point x="1768" y="244" type="line"/>
      <point x="1768" y="0" type="line"/>
    </contour>
    <contour>
      <point x="916" y="1595" type="move" name="top"/>
    </contour>
  </outline>
</glyph>
<glyph name="uni0237" format="1">
  <advance width="868"/>
  <unicode hex="0237"/>
  <outline>
    <contour>
      <point x="784" y="94" type="line" smooth="yes"/>
      <point x="784" y="-199"/>
      <point x="620" y="-326"/>
      <point x="323" y="-326" type="curve" smooth="yes"/>
      <point x="214" y="-326"/>
      <point x="134" y="-321"/>
      <point x="53" y="-305" type="curve"/>
      <point x="23" y="-66" type="line"/>
      <point x="212" y="-66" type="line"/>
      <point x="212" y="1300" type="line"/>
      <point x="784" y="1300" type="line"/>
    </contour>
    <contour>
      <point x="434" y="1300" type="move" name="top"/>
    </contour>
  </outline>
</glyph>
<glyph name="ogonek" format="1">
  <advance width="693"/>
  <unicode hex="02DB"/>
  <outline>
    <contour>
      <point x="566" y="0" type="curve"/>
      <point x="637" y="-72" type="line"/>
      <point x="568" y="-119"/>
      <point x="527" y="-196"/>
      <point x="527" y="-261" type="curve" smooth="yes"/>
      <point x="527" y="-324"/>
      <point x="565" y="-375"/>
      <point x="652" y="-375" type="curve" smooth="yes"/>
      <point x="688" y="-375"/>
      <point x="733" y="-366"/>
      <point x="787" y="-346" type="curve"/>
      <point x="787" y="-661" type="line"/>
      <point x="713" y="-689"/>
      <point x="646" y="-702"/>
      <point x="586" y="-702" type="curve" smooth="yes"/>
      <point x="379" y="-702"/>
      <point x="256" y="-554"/>
      <point x="256" y="-388" type="curve" smooth="yes"/>
      <point x="256" y="-243"/>
      <point x="350" y="-84"/>
    </contour>
    <contour>
      <point x="787" y="10" type="move" name="_ogonek"/>
    </contour>
  </outline>
</glyph>
<glyph name="commaaccent" format="1">
  <advance width="380"/>
  <unicode hex="0326"/>
  <outline>
    <contour>
      <point x="-17" y="-295" type="curve" smooth="yes"/>
      <point x="-17" y="-162"/>
      <point x="85" y="-95"/>
      <point x="187" y="-95" type="curve" smooth="yes"/>
      <point x="331" y="-95"/>
      <point x="397" y="-206"/>
      <point x="397" y="-335" type="curve" smooth="yes"/>
      <point x="397" y="-519"/>
      <point x="271" y="-738"/>
      <point x="50" y="-738" type="curve" smooth="yes"/>
      <point x="36" y="-738"/>
      <point x="21" y="-737"/>
      <point x="6" y="-735" type="curve"/>
      <point x="6" y="-626" type="line"/>
      <point x="86" y="-625"/>
      <point x="156" y="-581"/>
      <point x="162" y="-504" type="curve"/>
      <point x="69" y="-494"/>
      <point x="-17" y="-424"/>
    </contour>
    <contour>
      <point x="190" y="0" type="move" name="_bottom"/>
    </contour>
  </outline>
</glyph>
<glyph name="quoteleft" format="1">
  <advance width="722"/>
  <unicode hex="2018"/>
  <outline>
    <contour>
      <point x="569" y="1187" type="curve" smooth="yes"/>
      <point x="569" y="1054"/>
      <point x="472" y="987"/>
      <point x="375" y="987" type="curve" smooth="yes"/>
      <point x="224" y="987"/>
      <point x="155" y="1098"/>
      <point x="155" y="1227" type="curve" smooth="yes"/>
      <point x="155" y="1411"/>
      <point x="281" y="1630"/>
      <point x="502" y="1630" type="curve" smooth="yes"/>
      <point x="516" y="1630"/>
      <point x="531" y="1629"/>
      <point x="546" y="1627" type="curve"/>
      <point x="546" y="1518" type="line"/>
      <point x="466" y="1517"/>
      <point x="396" y="1473"/>
      <point x="390" y="1396" type="curve"/>
      <point x="483" y="1386"/>
      <point x="569" y="1316"/>
    </contour>
  </outline>
</glyph>
<glyph name="dagger" format="1">
  <advance width="1061"/>
  <unicode hex="2020"/>
  <outline>
    <contour>
      <point x="713" y="1458" type="curve" smooth="yes"/>
      <point x="713" y="1357"/>
      <point x="646" y="1225"/>
      <point x="584" y="1103" type="curve"/>
      <point x="690" y="1143"/>
      <point x="815" y="1199"/>
      <point x="908" y="1199" type="curve" smooth="yes"/>
      <point x="986" y="1199"/>
      <point x="1025" y="1128"/>
      <point x="1025" y="1058" type="curve" smooth="yes"/>
      <point x="1025" y="986"/>
      <point x="986" y="915"/>
      <point x="907" y="915" type="curve" smooth="yes"/>
      <point x="817" y="915"/>
      <point x="695" y="968"/>
      <point x="592" y="1007" type="curve"/>
      <point x="659" y="649"/>
      <point x="712" y="368"/>
      <point x="712" y="222" type="curve" smooth="yes"/>
      <point x="712" y="79"/>
      <point x="617" y="5"/>
      <point x="523" y="5" type="curve" smooth="yes"/>
      <point x="432" y="5"/>
      <point x="341" y="76"/>
      <point x="341" y="220" type="curve" smooth="yes"/>
      <point x="341" y="369"/>
      <point x="394" y="666"/>
      <point x="455" y="1002" type="curve"/>
      <point x="339" y="957"/>
      <point x="233" y="915"/>
      <point x="153" y="915" type="curve" smooth="yes"/>
      <point x="73" y="915"/>
      <point x="34" y="985"/>
      <point x="34" y="1056" type="curve" smooth="yes"/>
      <point x="34" y="1127"/>
      <point x="74" y="1199"/>
      <point x="152" y="1199" type="curve" smooth="yes"/>
      <point x="234" y="1199"/>
      <point x="342" y="1156"/>
      <point x="460" y="1110" type="curve"/>
      <point x="399" y="1230"/>
      <point x="338" y="1358"/>
      <point x="338" y="1457" type="curve" smooth="yes"/>
      <point x="338" y="1571"/>
      <point x="430" y="1627"/>
      <point x="523" y="1627" type="curve" smooth="yes"/>
      <point x="617" y="1627"/>
      <point x="713" y="1569"/>
    </contour>
  </outline>
</glyph>
<glyph name="trademark" format="1">
  <advance width="1884"/>
  <unicode hex="2122"/>
  <outline>
    <contour>
      <point x="1238" y="657" type="line"/>
      <point x="1160" y="951" type="line"/>
      <point x="1160" y="657" type="line"/>
      <point x="789" y="657" type="line"/>
      <point x="789" y="1595" type="line"/>
      <point x="1223" y="1595" type="line"/>
      <point x="1291" y="1158" type="line"/>
      <point x="1351" y="1595" type="line"/>
      <point x="1791" y="1595" type="line"/>
      <point x="1791" y="657" type="line"/>
      <point x="1421" y="657" type="line"/>
      <point x="1421" y="951" type="line"/>
      <point x="1342" y="657" type="line"/>
    </contour>
    <contour>
      <point x="745" y="1595" type="line"/>
      <point x="745" y="1453" type="line"/>
      <point x="582" y="1453" type="line"/>
      <point x="582" y="657" type="line"/>
      <point x="209" y="657" type="line"/>
      <point x="209" y="1453" type="line"/>
      <point x="47" y="1453" type="line"/>
      <point x="47" y="1595" type="line"/>
    </contour>
  </outline>
</glyph>
